<svg width="927" height="224" viewBox="0 0 927 224" fill="none" xmlns="http://www.w3.org/2000/svg">
<path fill-rule="evenodd" clip-rule="evenodd" d="M848.484 59.2622C844.004 54.3746 838.709 50.3016 832.599 47.6542C825.879 45.0067 818.955 43.7848 811.827 43.7848C804.699 43.7848 797.775 45.0067 791.259 47.6542C785.149 50.3016 779.854 54.171 775.374 59.2622C770.486 64.9644 767.024 71.8885 764.58 79.0162C761.526 88.1804 760.711 97.9556 760.711 107.527C760.711 116.895 761.526 126.874 764.58 135.834C767.024 142.962 770.283 149.886 775.374 155.588C779.854 160.476 785.149 164.345 791.259 166.993C806.532 173.306 818.955 171.269 833.821 165.975L838.913 164.142L845.633 203.446L841.356 204.464C816.715 210.167 795.332 211.999 771.301 201.817C759.693 196.929 749.51 190.005 740.957 180.637C732.404 171.269 726.294 160.272 722.221 148.257C717.741 135.223 715.908 121.375 715.908 107.527C715.908 93.679 717.741 79.8308 722.221 66.7972C726.294 54.7819 732.404 43.7848 740.957 34.4169C749.51 25.2527 759.693 18.125 771.301 13.441C784.131 8.14615 797.979 5.90601 811.827 5.90601C825.675 5.90601 839.523 8.14615 852.353 13.441C874.755 22.8089 895.323 43.7848 903.266 67.0009C915.281 102.029 910.19 139.5 890.029 170.455L885.956 168.215C875.773 162.92 866.609 158.236 856.63 152.941L852.761 150.905L854.39 147.035C863.147 126.67 865.794 100.399 859.278 79.2199C856.834 72.0921 853.372 65.168 848.484 59.4658V59.2622Z" fill="#CC9933"/>
<path fill-rule="evenodd" clip-rule="evenodd" d="M863.554 77.5908C858.463 62.3171 849.502 49.8945 834.228 43.5814C827.304 40.9339 819.973 39.5084 811.827 39.5084C803.884 39.5084 796.349 40.9339 789.425 43.5814C782.705 46.4325 776.799 50.7091 771.708 56.4113C766.82 62.1135 762.951 69.2412 760.1 77.7945C757.249 86.3478 756.027 96.3266 756.027 107.731C756.027 119.135 757.249 129.114 760.1 137.464C762.951 146.017 766.82 153.145 771.708 158.847C776.799 164.346 782.501 168.826 789.425 171.473C805.717 178.194 819.362 176.157 835.45 170.455L840.541 200.188C816.714 205.686 796.757 207.519 773.133 197.744C761.729 192.857 752.361 186.34 744.419 177.583C736.68 169.03 730.571 158.847 726.701 146.832C722.628 135.02 720.592 121.783 720.592 107.527C720.592 93.2719 722.628 80.2383 726.701 68.223C730.774 56.4113 736.68 46.0252 744.419 37.4719C752.361 28.9186 761.729 22.1982 773.133 17.5142C784.538 12.8303 797.368 10.3865 811.827 10.3865C826.286 10.3865 839.116 12.8303 850.52 17.5142C871.903 26.4748 891.25 46.2288 898.785 68.223C908.764 97.5485 906.728 138.686 887.992 163.938C881.068 160.273 870.274 154.774 858.666 148.665C868.034 127.281 870.682 99.9923 863.554 77.5908Z" fill="#23346A"/>
<path fill-rule="evenodd" clip-rule="evenodd" d="M843.187 171.27C850.519 167.197 855.406 162.716 859.887 157.829L851.333 153.348C849.093 155.996 846.446 158.44 843.595 160.68C842.984 161.291 842.373 161.698 841.762 162.309L843.391 171.27H843.187Z" fill="#23346A"/>
<path fill-rule="evenodd" clip-rule="evenodd" d="M836.468 144.795L839.116 156.607C842.17 154.774 844.818 152.737 846.447 150.09L836.265 144.591L836.468 144.795Z" fill="#23346A"/>
<path fill-rule="evenodd" clip-rule="evenodd" d="M848.483 202.428C866.2 195.911 880.456 183.692 888.398 172.491L879.845 168.011C872.106 177.379 860.702 186.747 846.854 193.06L848.483 202.224V202.428Z" fill="#23346A"/>
<path fill-rule="evenodd" clip-rule="evenodd" d="M845.633 185.932C857.037 180.434 866.201 172.491 872.922 164.549L865.387 160.68C859.888 166.789 852.76 172.491 844.207 176.768L845.836 185.729L845.633 185.932Z" fill="#23346A"/>
<path fill-rule="evenodd" clip-rule="evenodd" d="M849.704 208.945L851.13 217.498C852.148 217.294 853.166 216.887 854.184 216.683C879.437 209.963 894.507 191.431 901.635 178.601L894.507 175.139C885.954 187.969 871.902 202.428 849.704 208.945Z" fill="#23346A"/>
<path fill-rule="evenodd" clip-rule="evenodd" d="M439.963 147.85C444.239 133.187 449.127 117.099 455.44 99.9922L488.024 9.57178H536.696V198.762H502.076V103.047C502.076 88.9951 502.687 72.7031 503.909 54.171H502.687C501.057 59.4659 499.225 65.5754 496.984 72.2958C494.744 79.0163 492.504 85.5331 490.264 92.0499L450.96 198.762H428.762L389.661 92.0499C387.217 85.5331 384.977 78.8126 382.941 72.2958C380.701 65.5754 378.868 59.4659 377.239 54.171H376.017C377.239 71.4812 377.849 87.9769 377.849 102.843V198.762H343.025V9.57178H391.29L424.078 99.5849C429.576 114.655 434.668 130.743 439.352 147.85H440.166H439.963Z" fill="#23346A"/>
<path fill-rule="evenodd" clip-rule="evenodd" d="M545.045 198.762V9.57178H595.143C599.623 9.57178 604.103 9.77543 608.584 9.97908C613.268 10.1827 617.748 10.7937 622.024 11.201C626.301 11.8119 630.374 12.4229 634.447 13.2375C638.52 14.0521 642.186 15.0703 645.648 16.0886C655.627 19.347 664.587 23.6236 672.326 29.1221C680.065 34.6207 686.581 40.9338 691.673 48.4688C696.968 55.8002 700.837 64.1499 703.484 73.3141C706.132 82.4783 707.557 92.6608 707.557 103.251C707.557 113.433 706.335 123.005 704.299 131.965C702.059 140.722 698.597 148.868 694.116 156.199C689.432 163.531 683.527 170.048 676.603 175.546C669.475 181.248 661.329 185.729 651.757 189.394C643.611 192.449 634.447 194.689 624.468 196.115C614.286 197.744 602.881 198.355 590.255 198.355H545.249L545.045 198.762ZM593.921 169.844C614.082 169.844 629.967 167.197 641.371 161.494C651.554 156.607 659.089 149.275 664.18 139.704C669.475 130.132 671.919 117.913 671.919 103.251C671.919 95.5119 671.104 88.5878 669.475 82.2747C667.642 75.9615 665.198 70.463 662.143 65.7791C658.885 60.8915 655.016 56.6148 650.332 53.1528C645.851 49.6907 640.557 46.8397 634.854 44.5995C629.559 42.3594 623.654 40.9338 616.933 39.9156C610.416 39.101 603.085 38.6937 594.735 38.6937H579.462V169.844H593.717H593.921Z" fill="#23346A"/>
<path fill-rule="evenodd" clip-rule="evenodd" d="M264.01 198.762H229.39V9.57178H334.269V38.6937H264.01V87.3659H334.269V116.488H264.01V198.762Z" fill="#23346A"/>
<path fill-rule="evenodd" clip-rule="evenodd" d="M31.6442 86.9587H197.822C205.968 86.9587 212.485 93.6792 212.485 101.622C212.485 109.767 205.765 116.284 197.822 116.284H31.6442C23.4982 116.284 16.9814 109.564 16.9814 101.622C16.9814 93.4755 23.7019 86.9587 31.6442 86.9587Z" fill="#23346A"/>
<path fill-rule="evenodd" clip-rule="evenodd" d="M93.9616 135.223H197.619C205.765 135.223 212.282 141.944 212.282 149.886C212.282 158.032 205.562 164.549 197.619 164.549H93.9616C85.8156 164.549 79.2988 157.828 79.2988 149.886C79.2988 141.74 86.0193 135.223 93.9616 135.223Z" fill="#CC9933"/>
<path fill-rule="evenodd" clip-rule="evenodd" d="M141.819 38.6934H197.619C205.765 38.6934 212.282 45.4138 212.282 53.3561C212.282 61.5021 205.561 68.0189 197.619 68.0189H141.819C133.673 68.0189 127.156 61.2985 127.156 53.3561C127.156 45.2101 133.877 38.6934 141.819 38.6934Z" fill="#969698"/>
</svg>
